<svg width="1200" height="760" viewBox="0 0 1200 760" fill="none" xmlns="http://www.w3.org/2000/svg">
  <rect width="1200" height="760" rx="36" fill="#FAFAF9"/>
  <rect x="70" y="60" width="1060" height="640" rx="26" fill="white" stroke="#E4E4E1" stroke-width="3"/>
  <rect x="105" y="102" width="990" height="55" rx="12" fill="#F4F4F2"/><text x="140" y="138" fill="#17171B" font-family="Arial, sans-serif" font-size="27" font-weight="700">Lumina</text><rect x="820" y="117" width="110" height="22" rx="11" fill="#E4E4E1"/><rect x="950" y="110" width="105" height="36" rx="18" fill="#B01032"/>
  <rect x="105" y="187" width="990" height="300" rx="20" fill="#FFF0E7"/>
  <circle cx="940" cy="330" r="125" fill="#F7C6A6"/><circle cx="940" cy="330" r="85" fill="#C2410C"/><circle cx="940" cy="330" r="42" fill="#FFF0E7"/>
  <text x="160" y="285" fill="#17171B" font-family="Arial, sans-serif" font-size="52" font-weight="700">Work smarter with</text><text x="160" y="349" fill="#B01032" font-family="Arial, sans-serif" font-size="52" font-weight="700">a brighter workflow.</text><rect x="160" y="390" width="190" height="48" rx="24" fill="#B01032"/>
  <rect x="105" y="522" width="290" height="125" rx="16" fill="#FCE7EC"/><rect x="420" y="522" width="290" height="125" rx="16" fill="#FAFAF9"/><rect x="735" y="522" width="360" height="125" rx="16" fill="#FFF0E7"/>
  <rect x="138" y="555" width="130" height="16" rx="8" fill="#B01032"/><rect x="138" y="590" width="215" height="12" rx="6" fill="#6F6F76"/><rect x="453" y="555" width="130" height="16" rx="8" fill="#B01032"/><rect x="453" y="590" width="215" height="12" rx="6" fill="#6F6F76"/><rect x="768" y="555" width="130" height="16" rx="8" fill="#B01032"/><rect x="768" y="590" width="280" height="12" rx="6" fill="#6F6F76"/>
</svg>
